<?xml version="1.0" encoding="UTF-8" standalone="no"?><svg xmlns="http://www.w3.org/2000/svg" xmlns:xlink="http://www.w3.org/1999/xlink" contentStyleType="text/css" height="350px" preserveAspectRatio="none" style="width:402px;height:350px;background:#EEEBDC;" version="1.1" viewBox="0 0 402 350" width="402px" zoomAndPan="magnify"><defs/><g><polygon fill="#FFFFFF" points="186.5,145.3125,186.5,145.3826,188.5,145.1744,190.5,145.3769,192.5,145.4457,194.5,145.0747,196.5,145.3125,196.4223,145.3125,196.0735,154.8629,196.1165,164.4134,196.4318,173.9638,195.8086,183.5142,197.0536,193.0646,195.8697,202.6151,196.3022,212.1655,196.9319,221.7159,196.4142,231.2663,196.5682,240.8168,196.5,250.3672,196.5,250.3565,194.5,250.4267,192.5,250.4469,190.5,250.5624,188.5,250.5909,186.5,250.3672,187.1793,250.3672,186.7546,240.8168,186.9636,231.2663,187.2022,221.7159,185.7788,212.1655,187.1785,202.6151,186.2035,193.0646,187.0338,183.5142,186.005,173.9638,186.4315,164.4134,187.2416,154.8629,186.5,145.3125" style="stroke:#181818;stroke-width:1.0;"/><path d="M38,82.6094 L38.2802,82.6094 L37.4476,92.3861 L38.2577,102.1628 L38.5329,111.9396 L37.0488,121.7163 L37.8964,131.493 L37.4313,141.2697 L37.4887,151.0465 L37.9091,160.8232 L37.0782,170.5999 L38.7382,180.3766 L37.1596,190.1534 L37.7363,199.9301 L38.5759,209.7068 L37.8856,219.4836 L38.091,229.2603 L37.9574,239.037 L38.238,248.8137 L38.3188,258.5905 L38,268.3672 " fill="none" style="stroke:#181818;stroke-width:0.5;stroke-dasharray:5.0,5.0;"/><path d="M191.5,82.6094 L191.7802,82.6094 L190.9476,92.3861 L191.7577,102.1628 L192.0329,111.9396 L190.5488,121.7163 L191.3964,131.493 L190.9313,141.2697 L190.9887,151.0465 L191.4091,160.8232 L190.5782,170.5999 L192.2382,180.3766 L190.6596,190.1534 L191.2363,199.9301 L192.0759,209.7068 L191.3856,219.4836 L191.591,229.2603 L191.4574,239.037 L191.738,248.8137 L191.8188,258.5905 L191.5,268.3672 " fill="none" style="stroke:#181818;stroke-width:0.5;stroke-dasharray:5.0,5.0;"/><path d="M275.5,82.6094 L275.7802,82.6094 L274.9476,92.3861 L275.7577,102.1628 L276.0329,111.9396 L274.5488,121.7163 L275.3964,131.493 L274.9313,141.2697 L274.9887,151.0465 L275.4091,160.8232 L274.5782,170.5999 L276.2382,180.3766 L274.6596,190.1534 L275.2363,199.9301 L276.0759,209.7068 L275.3856,219.4836 L275.591,229.2603 L275.4574,239.037 L275.738,248.8137 L275.8188,258.5905 L275.5,268.3672 " fill="none" style="stroke:#181818;stroke-width:0.5;stroke-dasharray:5.0,5.0;"/><path d="M364.5,82.6094 L364.7802,82.6094 L363.9476,92.3861 L364.7577,102.1628 L365.0329,111.9396 L363.5488,121.7163 L364.3964,131.493 L363.9313,141.2697 L363.9887,151.0465 L364.4091,160.8232 L363.5782,170.5999 L365.2382,180.3766 L363.6596,190.1534 L364.2363,199.9301 L365.0759,209.7068 L364.3856,219.4836 L364.591,229.2603 L364.4574,239.037 L364.738,248.8137 L364.8188,258.5905 L364.5,268.3672 " fill="none" style="stroke:#181818;stroke-width:0.5;stroke-dasharray:5.0,5.0;"/><text fill="#000000" font-family="sans-serif" font-size="14" lengthAdjust="spacing" textLength="61" x="5" y="79.5332">Customer</text><polygon fill="#E2E2F0" points="46.5442,15.4459,45.3715,17.0482,43.9845,19.3951,42.0008,20.9767,39.9163,21.8415,38.2542,21.9166,36.118,20.8349,34.1023,20.1283,32.5724,18.6936,31.7699,17.0511,31.2939,15.7433,30.8277,14.0351,30.0709,12.5651,30.6525,11.1298,31.162,9.5576,33.074,8.3142,34.4192,6.7008,36.0843,6.165,38.0637,5.7037,40.6021,5.9778,41.9924,6.6335,43.6089,6.9307,45.5743,8.9443,46.2595,11.0701,46.5571,12.5206,46.22,14.9108" style="stroke:#181818;stroke-width:0.5;"/><path d="M38.5,21.5 L38.6868,21.5 L38.1317,26.9 L38.6718,32.3 L38.8553,37.7 L37.8659,43.1 L38.5,48.5 M25.5,29.5 L25.5,29.4309 L30.7,29.1209 L35.9,29.1591 L41.1,29.4394 L46.3,28.8854 L51.5,29.5 M38.5,48.5 L38.8719,48.8223 L35.4766,51.1331 L33.1672,54.3849 L30.9901,57.7515 L28.0424,60.4501 L25.5,63.5 M38.5,48.5 L38.5458,48.5397 L41.0785,51.4814 L43.8199,54.6039 L46.4606,57.6392 L49.2934,60.841 L51.5,63.5 " fill="none" style="stroke:#181818;stroke-width:0.5;"/><text fill="#000000" font-family="sans-serif" font-size="14" lengthAdjust="spacing" textLength="61" x="5" y="281.9004">Customer</text><polygon fill="#E2E2F0" points="46.5442,295.4225,45.3715,297.0248,43.9845,299.3716,42.0008,300.9532,39.9163,301.8181,38.2542,301.8932,36.118,300.8115,34.1023,300.1049,32.5724,298.6701,31.7699,297.0277,31.2939,295.7199,30.8277,294.0116,30.0709,292.5416,30.6525,291.1064,31.162,289.5342,33.074,288.2907,34.4192,286.6774,36.0843,286.1416,38.0637,285.6802,40.6021,285.9544,41.9924,286.61,43.6089,286.9072,45.5743,288.9209,46.2595,291.0467,46.5571,292.4972,46.22,294.8874" style="stroke:#181818;stroke-width:0.5;"/><path d="M38.5,301.4766 L38.6868,301.4766 L38.1317,306.8766 L38.6718,312.2766 L38.8553,317.6766 L37.8659,323.0766 L38.5,328.4766 M25.5,309.4766 L25.5,309.4075 L30.7,309.0975 L35.9,309.1357 L41.1,309.416 L46.3,308.862 L51.5,309.4766 M38.5,328.4766 L38.8719,328.7989 L35.4766,331.1096 L33.1672,334.3614 L30.9901,337.728 L28.0424,340.4266 L25.5,343.4766 M38.5,328.4766 L38.5458,328.5163 L41.0785,331.458 L43.8199,334.5805 L46.4606,337.6158 L49.2934,340.8175 L51.5,343.4766 " fill="none" style="stroke:#181818;stroke-width:0.5;"/><polygon fill="#E2E2F0" points="167,50,167,50.2102,176.8,49.5857,186.6,50.1933,196.4,50.3997,206.2,49.2866,216,50,215.9901,49.9761,216.2991,50.0151,216.6582,50.1748,217.052,50.4184,217.326,50.3729,217.7678,50.7322,217.9383,50.8029,217.7201,51.0054,217.9998,51.4141,218.3401,51.848,218.3271,52.1355,218.5,52.5,218.5227,52.5,218.4894,57.8219,218.5595,63.1438,218.5797,68.4656,218.6952,73.7875,218.5,79.1094,218.7067,79.195,218.5627,79.5496,218.2855,79.849,218.2034,80.2292,218.1305,80.6132,217.7678,80.8771,217.6758,80.655,217.5008,81.2325,217.0228,81.0787,216.7752,81.4809,216.2904,81.3105,216,81.6094,216,81.5409,206.2,82.351,196.4,81.5606,186.6,81.7147,176.8,81.948,167,81.6094,167.0531,81.7376,166.6459,81.4617,166.3295,81.4049,165.8663,80.9938,165.6221,81.1112,165.2322,80.8771,165.4011,80.9471,165.2227,80.5803,165.1281,80.2482,164.6441,79.7549,164.4456,79.3797,164.5,79.1094,164.2929,79.1094,164.4804,73.7875,164.4345,68.4656,164.7271,63.1438,164.4418,57.8219,164.5,52.5,164.3944,52.4562,164.7167,52.1756,164.5875,51.7078,164.7795,51.3731,165.2856,51.1686,165.2322,50.7322,165.2878,50.8664,165.6795,50.812,165.8983,50.3402,166.3336,50.3912,166.7218,50.3283,167,50" style="stroke:#181818;stroke-width:0.5;"/><text fill="#000000" font-family="sans-serif" font-size="14" lengthAdjust="spacing" textLength="40" x="171.5" y="71.5332">login()</text><polygon fill="#E2E2F0" points="167,267.3672,167,267.5774,176.8,266.9529,186.6,267.5605,196.4,267.7669,206.2,266.6538,216,267.3672,215.9901,267.3433,216.2991,267.3823,216.6582,267.542,217.052,267.7855,217.326,267.7401,217.7678,268.0994,217.9383,268.17,217.7201,268.3726,217.9998,268.7813,218.3401,269.2152,218.3271,269.5027,218.5,269.8672,218.5227,269.8672,218.4894,275.1891,218.5595,280.5109,218.5797,285.8328,218.6952,291.1547,218.5,296.4766,218.7067,296.5622,218.5627,296.9168,218.2855,297.2161,218.2034,297.5964,218.1305,297.9804,217.7678,298.2443,217.6758,298.0222,217.5008,298.5997,217.0228,298.4459,216.7752,298.8481,216.2904,298.6777,216,298.9766,216,298.9081,206.2,299.7182,196.4,298.9278,186.6,299.0819,176.8,299.3152,167,298.9766,167.0531,299.1047,166.6459,298.8289,166.3295,298.7721,165.8663,298.3609,165.6221,298.4784,165.2322,298.2443,165.4011,298.3143,165.2227,297.9475,165.1281,297.6154,164.6441,297.122,164.4456,296.7469,164.5,296.4766,164.2929,296.4766,164.4804,291.1547,164.4345,285.8328,164.7271,280.5109,164.4418,275.1891,164.5,269.8672,164.3944,269.8234,164.7167,269.5428,164.5875,269.075,164.7795,268.7403,165.2856,268.5358,165.2322,268.0994,165.2878,268.2336,165.6795,268.1792,165.8983,267.7074,166.3336,267.7584,166.7218,267.6955,167,267.3672" style="stroke:#181818;stroke-width:0.5;"/><text fill="#000000" font-family="sans-serif" font-size="14" lengthAdjust="spacing" textLength="40" x="171.5" y="288.9004">login()</text><polygon fill="#E2E2F0" points="231,50,231,50.2102,241,49.5857,251,50.1933,261,50.3997,271,49.2866,281,49.9223,291,49.5735,301,49.6165,311,49.9318,321,50,320.9118,49.7871,321.4242,50.3169,321.6267,50.0988,322.0354,50.3784,322.4693,50.7188,322.7678,50.7322,322.7414,50.7213,322.9352,51.0945,323.0508,51.4353,323.2621,51.8157,323.4272,52.177,323.5,52.5,323.6952,52.5,323.7237,57.8219,323.7264,63.1438,323.5849,68.4656,323.6545,73.7875,323.5,79.1094,323.7163,79.199,323.1315,79.3709,323.4161,79.903,322.9693,80.1322,323.0786,80.5917,322.7678,80.8771,322.7046,80.7247,322.4055,81.0025,322.1553,81.3984,321.7009,81.3015,321.367,81.4954,321,81.6094,321,81.948,311,82.0256,301,81.6055,291,81.8966,281,81.037,271,81.8938,261,82.1576,251,82.0539,241,82.2224,231,81.6094,230.9384,81.4606,230.5633,81.2621,230.2136,81.1251,229.9318,81.1519,229.5607,80.9631,229.2322,80.8771,229.4421,80.9641,229.032,80.5013,228.8337,80.1263,228.8632,79.8456,228.4411,79.3779,228.5,79.1094,228.327,79.1094,228.7163,73.7875,228.6452,68.4656,228.7448,63.1438,228.3927,57.8219,228.5,52.5,228.5983,52.5407,228.8283,52.2218,228.6474,51.7326,228.9098,51.4271,229.1246,51.1019,229.2322,50.7322,229.3154,50.9329,229.5853,50.5845,229.9983,50.5818,230.2223,50.1223,230.5601,49.9379,231,50" style="stroke:#181818;stroke-width:0.5;"/><text fill="#000000" font-family="sans-serif" font-size="14" lengthAdjust="spacing" textLength="81" x="235.5" y="71.5332">placeOrder()</text><polygon fill="#E2E2F0" points="231,267.3672,231,267.5774,241,266.9529,251,267.5605,261,267.7669,271,266.6538,281,267.2895,291,266.9407,301,266.9837,311,267.299,321,267.3672,320.9118,267.1543,321.4242,267.6841,321.6267,267.466,322.0354,267.7456,322.4693,268.086,322.7678,268.0994,322.7414,268.0885,322.9352,268.4617,323.0508,268.8025,323.2621,269.1829,323.4272,269.5441,323.5,269.8672,323.6952,269.8672,323.7237,275.1891,323.7264,280.5109,323.5849,285.8328,323.6545,291.1547,323.5,296.4766,323.7163,296.5661,323.1315,296.7381,323.4161,297.2702,322.9693,297.4994,323.0786,297.9589,322.7678,298.2443,322.7046,298.0919,322.4055,298.3697,322.1553,298.7656,321.7009,298.6687,321.367,298.8625,321,298.9766,321,299.3152,311,299.3928,301,298.9727,291,299.2638,281,298.4041,271,299.2609,261,299.5248,251,299.4211,241,299.5896,231,298.9766,230.9384,298.8278,230.5633,298.6293,230.2136,298.4923,229.9318,298.5191,229.5607,298.3303,229.2322,298.2443,229.4421,298.3313,229.032,297.8685,228.8337,297.4935,228.8632,297.2128,228.4411,296.7451,228.5,296.4766,228.327,296.4766,228.7163,291.1547,228.6452,285.8328,228.7448,280.5109,228.3927,275.1891,228.5,269.8672,228.5983,269.9079,228.8283,269.5889,228.6474,269.0998,228.9098,268.7943,229.1246,268.469,229.2322,268.0994,229.3154,268.3001,229.5853,267.9517,229.9983,267.949,230.2223,267.4895,230.5601,267.3051,231,267.3672" style="stroke:#181818;stroke-width:0.5;"/><text fill="#000000" font-family="sans-serif" font-size="14" lengthAdjust="spacing" textLength="81" x="235.5" y="288.9004">placeOrder()</text><polygon fill="#E2E2F0" points="336,50,336,50.2102,345.6667,49.5857,355.3333,50.1933,365,50.3997,374.6667,49.2866,384.3333,49.9223,394,50,393.9456,49.8687,394.3046,50.0283,394.6984,50.2719,394.9725,50.2264,395.4848,50.7563,395.7678,50.7322,395.5737,50.6518,395.8533,51.0606,396.1937,51.4944,396.1807,51.782,396.3746,52.1552,396.5,52.5,396.4894,52.5,396.5595,57.8219,396.5797,63.1438,396.6952,68.4656,396.7237,73.7875,396.5,79.1094,396.7092,79.196,396.432,79.4954,396.3499,79.8756,396.2769,80.2596,395.6921,80.4316,395.7678,80.8771,395.8543,81.0861,395.3764,80.9323,395.1288,81.3344,394.644,81.164,394.3448,81.4418,394,81.6094,394,82.351,384.3333,81.5606,374.6667,81.7147,365,81.948,355.3333,82.0256,345.6667,81.6055,336,81.6094,336.0366,81.6978,335.5734,81.2866,335.3292,81.4041,335.0093,81.3389,334.6425,81.1605,334.2322,80.8771,334.421,80.9553,333.937,80.462,333.7385,80.0868,333.6015,79.7372,333.6283,79.4554,333.5,79.1094,333.4345,79.1094,333.7271,73.7875,333.4418,68.4656,333.3856,63.1438,333.5761,57.8219,333.5,52.5,333.2946,52.4149,333.4866,52.0802,333.9927,51.8757,334.0735,51.4949,334.312,51.1795,334.2322,50.7322,334.1912,50.6331,334.6265,50.6841,335.0147,50.6212,335.2326,50.1474,335.6342,50.1169,336,50" style="stroke:#181818;stroke-width:0.5;"/><text fill="#000000" font-family="sans-serif" font-size="14" lengthAdjust="spacing" textLength="49" x="340.5" y="71.5332">logout()</text><polygon fill="#E2E2F0" points="336,267.3672,336,267.5774,345.6667,266.9529,355.3333,267.5605,365,267.7669,374.6667,266.6538,384.3333,267.2895,394,267.3672,393.9456,267.2358,394.3046,267.3955,394.6984,267.6391,394.9725,267.5936,395.4848,268.1235,395.7678,268.0994,395.5737,268.019,395.8533,268.4277,396.1937,268.8616,396.1807,269.1491,396.3746,269.5223,396.5,269.8672,396.4894,269.8672,396.5595,275.1891,396.5797,280.5109,396.6952,285.8328,396.7237,291.1547,396.5,296.4766,396.7092,296.5632,396.432,296.8626,396.3499,297.2428,396.2769,297.6268,395.6921,297.7988,395.7678,298.2443,395.8543,298.4533,395.3764,298.2995,395.1288,298.7016,394.644,298.5312,394.3448,298.809,394,298.9766,394,299.7182,384.3333,298.9278,374.6667,299.0819,365,299.3152,355.3333,299.3928,345.6667,298.9727,336,298.9766,336.0366,299.065,335.5734,298.6538,335.3292,298.7712,335.0093,298.706,334.6425,298.5277,334.2322,298.2443,334.421,298.3225,333.937,297.8292,333.7385,297.454,333.6015,297.1044,333.6283,296.8226,333.5,296.4766,333.4345,296.4766,333.7271,291.1547,333.4418,285.8328,333.3856,280.5109,333.5761,275.1891,333.5,269.8672,333.2946,269.7821,333.4866,269.4474,333.9927,269.2429,334.0735,268.8621,334.312,268.5467,334.2322,268.0994,334.1912,268.0003,334.6265,268.0513,335.0147,267.9884,335.2326,267.5146,335.6342,267.4841,336,267.3672" style="stroke:#181818;stroke-width:0.5;"/><text fill="#000000" font-family="sans-serif" font-size="14" lengthAdjust="spacing" textLength="49" x="340.5" y="288.9004">logout()</text><polygon fill="#FFFFFF" points="186.5,145.3125,186.5,145.3826,188.5,145.1744,190.5,145.3769,192.5,145.4457,194.5,145.0747,196.5,145.3125,196.4223,145.3125,196.0735,154.8629,196.1165,164.4134,196.4318,173.9638,195.8086,183.5142,197.0536,193.0646,195.8697,202.6151,196.3022,212.1655,196.9319,221.7159,196.4142,231.2663,196.5682,240.8168,196.5,250.3672,196.5,250.3565,194.5,250.4267,192.5,250.4469,190.5,250.5624,188.5,250.5909,186.5,250.3672,187.1793,250.3672,186.7546,240.8168,186.9636,231.2663,187.2022,221.7159,185.7788,212.1655,187.1785,202.6151,186.2035,193.0646,187.0338,183.5142,186.005,173.9638,186.4315,164.4134,187.2416,154.8629,186.5,145.3125" style="stroke:#181818;stroke-width:1.0;"/><polygon fill="#181818" points="179.5,110.9609,179.526,111.026,181.4487,111.6327,183.5239,112.6208,185.5495,113.4846,187.4117,113.9401,189.5,114.9609,189.4904,114.9369,187.4472,115.6289,185.4525,116.4422,183.4916,117.3398,181.4144,117.947,179.5,118.9609,179.6305,119.0914,180.1514,118.0124,181.0534,117.3143,182.0018,116.6627,182.6798,115.7407,183.5,114.9609,183.5161,114.977,182.6925,114.1534,181.9421,113.403,181.1564,112.6173,180.438,111.899,179.5,110.9609" style="stroke:#181818;stroke-width:1.0;"/><path d="M38.5,114.9609 L38.5,115.2412 L48.3,114.4085 L58.1,115.2187 L67.9,115.4938 L77.7,114.0097 L87.5,114.8573 L97.3,114.3923 L107.1,114.4496 L116.9,114.8701 L126.7,114.0391 L136.5,115.6991 L146.3,114.1206 L156.1,114.6972 L165.9,115.5369 L175.7,114.8466 L185.5,114.9609 " fill="none" style="stroke:#181818;stroke-width:1.0;"/><text fill="#000000" font-family="sans-serif" font-size="13" lengthAdjust="spacing" textLength="129" x="45.5" y="110.1045">username &amp; password</text><polygon fill="#181818" points="49.5,141.3125,49.526,141.3775,47.4487,141.9843,45.5239,142.9723,43.5495,143.8362,41.4117,144.2917,39.5,145.3125,39.4904,145.2884,41.4472,145.9805,43.4525,146.7938,45.4916,147.6914,47.4144,148.2985,49.5,149.3125,49.6305,149.443,48.5514,148.3639,47.8534,147.6659,47.2018,147.0143,46.2798,146.0923,45.5,145.3125,45.5161,145.3286,46.2925,144.505,47.1421,143.7546,47.9564,142.9689,48.838,142.2505,49.5,141.3125" style="stroke:#181818;stroke-width:1.0;"/><path d="M43.5,145.3125 L43.5,145.5927 L53.6429,144.7601 L63.7857,145.5702 L73.9286,145.8454 L84.0714,144.3613 L94.2143,145.2089 L104.3571,144.7438 L114.5,144.8012 L124.6429,145.2216 L134.7857,144.3907 L144.9286,146.0507 L155.0714,144.4721 L165.2143,145.0488 L175.3571,145.8884 L185.5,145.3125 " fill="none" style="stroke:#181818;stroke-width:1.0;"/><text fill="#000000" font-family="sans-serif" font-size="13" lengthAdjust="spacing" textLength="81" x="55.5" y="140.4561">session token</text><polygon fill="#181818" points="264,171.6641,264.026,171.7291,265.9487,172.3358,268.0239,173.3239,270.0495,174.1878,271.9117,174.6433,274,175.6641,273.9904,175.64,271.9472,176.3321,269.9525,177.1454,267.9916,178.043,265.9144,178.6501,264,179.6641,264.1305,179.7946,264.6514,178.7155,265.5534,178.0174,266.5018,177.3659,267.1798,176.4438,268,175.6641,268.0161,175.6801,267.1925,174.8565,266.4421,174.1061,265.6564,173.3204,264.938,172.6021,264,171.6641" style="stroke:#181818;stroke-width:1.0;"/><path d="M38.5,175.6641 L38.5,175.9443 L48.5652,175.1116 L58.6304,175.9218 L68.6957,176.197 L78.7609,174.7129 L88.8261,175.5604 L98.8913,175.0954 L108.9565,175.1527 L119.0217,175.5732 L129.087,174.7422 L139.1522,176.4023 L149.2174,174.8237 L159.2826,175.4004 L169.3478,176.24 L179.413,175.5497 L189.4783,175.755 L199.5435,175.6215 L209.6087,175.9021 L219.6739,175.9829 L229.7391,176.445 L239.8043,176.5588 L249.8696,176.5697 L259.9348,176.0036 L270,175.6641 " fill="none" style="stroke:#181818;stroke-width:1.0;"/><text fill="#000000" font-family="sans-serif" font-size="13" lengthAdjust="spacing" textLength="142" x="45.5" y="170.8076">session token, order info</text><polygon fill="#181818" points="49.5,202.0156,49.526,202.0807,47.4487,202.6874,45.5239,203.6754,43.5495,204.5393,41.4117,204.9948,39.5,206.0156,39.4904,205.9916,41.4472,206.6836,43.4525,207.4969,45.4916,208.3945,47.4144,209.0017,49.5,210.0156,49.6305,210.1461,48.5514,209.0671,47.8534,208.369,47.2018,207.7174,46.2798,206.7954,45.5,206.0156,45.5161,206.0317,46.2925,205.2081,47.1421,204.4577,47.9564,203.672,48.838,202.9537,49.5,202.0156" style="stroke:#181818;stroke-width:1.0;"/><path d="M43.5,206.0156 L43.5,206.2959 L53.5652,205.4632 L63.6304,206.2733 L73.6957,206.5485 L83.7609,205.0644 L93.8261,205.912 L103.8913,205.447 L113.9565,205.5043 L124.0217,205.9247 L134.087,205.0938 L144.1522,206.7538 L154.2174,205.1753 L164.2826,205.7519 L174.3478,206.5916 L184.413,205.9013 L194.4783,206.1066 L204.5435,205.973 L214.6087,206.2537 L224.6739,206.3345 L234.7391,206.7965 L244.8043,206.9104 L254.8696,206.9213 L264.9348,206.3551 L275,206.0156 " fill="none" style="stroke:#181818;stroke-width:1.0;"/><text fill="#000000" font-family="sans-serif" font-size="13" lengthAdjust="spacing" textLength="14" x="55.5" y="201.1592">ok</text><polygon fill="#181818" points="353,216.0156,353.026,216.0807,354.9487,216.6874,357.0239,217.6754,359.0495,218.5393,360.9117,218.9948,363,220.0156,362.9904,219.9916,360.9472,220.6836,358.9525,221.4969,356.9916,222.3945,354.9144,223.0017,353,224.0156,353.1305,224.1461,353.6514,223.0671,354.5534,222.369,355.5018,221.7174,356.1798,220.7954,357,220.0156,357.0161,220.0317,356.1925,219.2081,355.4421,218.4577,354.6564,217.672,353.938,216.9537,353,216.0156" style="stroke:#181818;stroke-width:1.0;"/><path d="M38.5,220.0156 L38.5,220.2959 L48.5156,219.4632 L58.5313,220.2733 L68.5469,220.5485 L78.5625,219.0644 L88.5781,219.912 L98.5938,219.447 L108.6094,219.5043 L118.625,219.9247 L128.6406,219.0938 L138.6563,220.7538 L148.6719,219.1753 L158.6875,219.7519 L168.7031,220.5916 L178.7188,219.9013 L188.7344,220.1066 L198.75,219.973 L208.7656,220.2537 L218.7813,220.3345 L228.7969,220.7965 L238.8125,220.9104 L248.8281,220.9213 L258.8438,220.3551 L268.8594,220.6337 L278.875,220.9519 L288.8906,219.054 L298.9063,220.9203 L308.9219,219.6203 L318.9375,220.7274 L328.9531,219.3556 L338.9688,219.9243 L348.9844,221.0044 L359,220.0156 " fill="none" style="stroke:#181818;stroke-width:1.0;"/><polygon fill="#181818" points="49.5,246.3672,49.526,246.4322,47.4487,247.039,45.5239,248.027,43.5495,248.8909,41.4117,249.3464,39.5,250.3672,39.4904,250.3431,41.4472,251.0352,43.4525,251.8485,45.4916,252.7461,47.4144,253.3532,49.5,254.3672,49.6305,254.4977,48.5514,253.4186,47.8534,252.7206,47.2018,252.069,46.2798,251.147,45.5,250.3672,45.5161,250.3833,46.2925,249.5597,47.1421,248.8093,47.9564,248.0236,48.838,247.3052,49.5,246.3672" style="stroke:#181818;stroke-width:1.0;"/><path d="M43.5,250.3672 L43.5,250.6474 L53.5156,249.8148 L63.5313,250.6249 L73.5469,250.9001 L83.5625,249.416 L93.5781,250.2636 L103.5938,249.7985 L113.6094,249.8559 L123.625,250.2763 L133.6406,249.4454 L143.6563,251.1054 L153.6719,249.5268 L163.6875,250.1035 L173.7031,250.9431 L183.7188,250.2528 L193.7344,250.4582 L203.75,250.3246 L213.7656,250.6052 L223.7813,250.686 L233.7969,251.1481 L243.8125,251.2619 L253.8281,251.2729 L263.8438,250.7067 L273.8594,250.9853 L283.875,251.3035 L293.8906,249.4056 L303.9063,251.2719 L313.9219,249.9718 L323.9375,251.0789 L333.9531,249.7072 L343.9688,250.2759 L353.9844,251.356 L364,250.3672 " fill="none" style="stroke:#181818;stroke-width:1.0;"/><text fill="#000000" font-family="sans-serif" font-size="13" lengthAdjust="spacing" textLength="14" x="55.5" y="245.5107">ok</text><!--MD5=[1061234cbd56fc44ad91c0552cf19d7f]
@startuml
    skinparam backgroundColor #EEEBDC
    skinparam handwritten true
    actor Customer
    Customer -> "login()" : username & password
    "login()" -> Customer : session token
    activate "login()"
    Customer -> "placeOrder()" : session token, order info
    "placeOrder()" -> Customer : ok
    Customer -> "logout()"
    "logout()" -> Customer : ok
    deactivate "login()"
@enduml

PlantUML version 1.2022.7(Mon Aug 22 22:31:30 IST 2022)
(GPL source distribution)
Java Runtime: Java(TM) SE Runtime Environment
JVM: Java HotSpot(TM) 64-Bit Server VM
Default Encoding: Cp1252
Language: en
Country: IN
--></g></svg>